<svg width="2049" height="763" viewBox="0 0 2049 763" fill="none" xmlns="http://www.w3.org/2000/svg">
<path d="M261.728 589.793C271.649 577.762 289.521 575.988 301.647 585.831C313.771 595.675 315.559 613.408 305.64 625.439C288.991 645.629 276.656 660.644 261.658 673.902C246.322 687.458 229.047 698.5 202.901 712.913C189.205 720.462 171.932 715.565 164.323 701.976C156.714 688.387 161.649 671.248 175.345 663.699C200.259 649.965 213.247 641.301 223.915 631.871C234.92 622.143 244.336 610.884 261.728 589.793Z" fill="#030303"/>
<path d="M267.701 159.131C349.193 159.132 414.178 226.158 414.178 305.513V667.664C414.178 683.209 401.476 695.811 385.81 695.812C370.142 695.812 357.441 683.21 357.441 667.664V305.513C357.441 256.394 317.004 215.427 267.701 215.426C205.7 215.426 172.854 260.232 172.102 289.17V389.941C172.102 412.078 164.913 444.035 143.468 472.309C121.296 501.541 85.1741 525.072 31.2504 530.532C15.6646 532.11 1.74002 520.855 0.14875 505.39C-1.44165 489.926 9.90246 476.109 25.4881 474.53C64.231 470.607 85.7947 454.732 98.1375 438.459C111.206 421.229 115.365 401.58 115.365 389.941V288.456L115.373 288.159C116.705 225.855 177.556 159.131 267.701 159.131Z" fill="#030303"/>
<path d="M260.989 275.474C276.656 275.475 289.357 288.077 289.357 303.622V380.558C289.357 409.175 280.783 462.487 250.543 514.241C219.764 566.92 166.436 617.961 78.4386 638.751C63.1976 642.351 47.9004 633.011 44.271 617.889C40.6422 602.766 50.0551 587.588 65.2961 583.987C136.158 567.246 177.395 527.193 201.46 486.006C226.065 443.894 232.621 400.566 232.621 380.558V303.622C232.621 288.076 245.322 275.474 260.989 275.474Z" fill="#030303"/>
<path d="M268.554 46.5402C412.395 46.5411 525.76 169.475 525.76 313.004V558.827C525.76 574.372 513.058 586.973 497.391 586.974C481.724 586.974 469.023 574.372 469.023 558.827V313.004C469.023 197.577 378.131 102.836 268.554 102.835C136.213 102.836 58.4387 203.371 56.7376 279.597V386.188C56.7376 401.733 44.0359 414.335 28.3693 414.336C12.7019 414.336 0.000998263 401.733 0.000998263 386.188V278.941L0.00838584 278.652C2.22153 171.005 105.983 46.541 268.554 46.5402Z" fill="#030303"/>
<path d="M841.216 616.816C819.168 616.816 800.088 612.682 783.976 604.414C768.076 595.934 755.78 584.486 747.088 570.07C738.608 555.654 734.368 539.33 734.368 521.098C734.368 502.23 738.078 486.33 745.498 473.398C752.918 460.254 763.624 449.548 777.616 441.28C791.608 432.8 808.568 426.44 828.496 422.2C841.64 419.232 855.526 416.9 870.154 415.204C884.994 413.508 899.198 412.13 912.766 411.07C926.334 410.01 937.888 409.268 947.428 408.844V389.446C947.428 361.674 941.598 341.746 929.938 329.662C918.278 317.366 900.152 311.218 875.56 311.218C860.296 311.218 846.834 313.232 835.174 317.26C823.726 321.288 814.822 328.814 808.462 339.838C802.102 350.65 799.028 366.55 799.24 387.538H743.908C741.364 358.918 745.392 335.174 755.992 316.306C766.592 297.226 782.492 283.022 803.692 273.694C824.892 264.154 850.014 259.384 879.058 259.384C895.594 259.384 911.388 261.398 926.44 265.426C941.492 269.242 954.848 275.814 966.508 285.142C978.168 294.258 987.39 306.766 994.174 322.666C1000.96 338.566 1004.35 358.494 1004.35 382.45V613H946.792L947.428 537.634C942.128 561.59 930.15 580.776 911.494 595.192C893.05 609.608 869.624 616.816 841.216 616.816ZM854.89 570.07C870.366 570.07 884.57 567.208 897.502 561.484C910.646 555.76 921.67 548.446 930.574 539.542C939.478 530.638 945.096 521.522 947.428 512.194V444.778C935.132 445.626 921.458 447.11 906.406 449.23C891.354 451.138 878.104 453.47 866.656 456.226C843.76 461.526 826.694 468.628 815.458 477.532C804.434 486.436 798.922 499.262 798.922 516.01C798.922 525.974 801.042 535.09 805.282 543.358C809.734 551.414 816.094 557.88 824.362 562.756C832.63 567.42 842.806 569.858 854.89 570.07ZM1105.68 613V118.51H1164.83V613H1105.68ZM1368.61 617.77C1341.68 617.77 1321.12 610.88 1306.92 597.1C1292.92 583.108 1285.93 563.286 1285.93 537.634V349.378C1285.93 342.594 1287.31 336.34 1290.06 330.616C1292.82 324.68 1296.85 320.864 1302.15 319.168L1285.93 279.736V268.924L1300.24 165.256H1344.44V527.776C1344.44 541.344 1347.62 550.566 1353.98 555.442C1360.34 560.106 1371.26 562.438 1386.73 562.438C1397.97 562.438 1407.51 562.438 1415.35 562.438C1423.2 562.226 1431.36 561.802 1439.84 561.166V613.318C1428.18 615.438 1416.1 616.71 1403.59 617.134C1391.29 617.558 1379.63 617.77 1368.61 617.77ZM1235.37 319.168V266.062H1436.98V319.168H1235.37ZM1638.24 617.77C1606.65 617.77 1578.88 610.88 1554.93 597.1C1531.18 583.32 1512.74 563.074 1499.59 536.362C1486.45 509.438 1479.88 476.578 1479.88 437.782C1479.88 400.47 1486.66 368.458 1500.23 341.746C1513.8 315.034 1532.45 294.576 1556.2 280.372C1579.94 266.168 1606.97 259.066 1637.29 259.066C1667.39 259.066 1693.15 265.532 1714.56 278.464C1736.19 291.396 1752.83 309.946 1764.49 334.114C1776.15 358.07 1781.87 386.796 1781.66 420.292C1781.66 427.076 1781.45 432.694 1781.02 437.146C1780.6 441.598 1780.28 446.262 1780.07 451.138H1539.03C1540.51 489.298 1550.05 518.236 1567.65 537.952C1585.45 557.456 1608.14 567.208 1635.7 567.208C1659.02 567.208 1677.04 562.332 1689.76 552.58C1702.69 542.616 1710.85 529.896 1714.24 514.42H1772.12C1770.64 536.468 1763.85 555.23 1751.77 570.706C1739.9 586.182 1724.21 597.948 1704.7 606.004C1685.2 613.848 1663.05 617.77 1638.24 617.77ZM1570.51 406.618H1722.19C1721.77 376.938 1714.46 353.618 1700.25 336.658C1686.05 319.698 1664.32 311.218 1635.06 311.218C1604.32 311.218 1581 321.712 1565.1 342.7C1549.2 363.476 1540.51 392.202 1539.03 428.878C1540.72 420.186 1544.11 414.356 1549.2 411.388C1554.5 408.208 1561.6 406.618 1570.51 406.618ZM1859.05 613V266.062H1909.3L1915.66 399.304L1908.66 381.178C1910.15 368.034 1913.01 354.36 1917.25 340.156C1921.7 325.952 1927.95 312.702 1936.01 300.406C1944.28 287.898 1954.77 277.828 1967.49 270.196C1980.42 262.564 1996.22 258.748 2014.87 258.748C2018.48 258.748 2021.87 258.96 2025.05 259.384C2028.44 259.808 2031.73 260.338 2034.91 260.974V323.62C2029.61 321.924 2023.99 320.864 2018.05 320.44C2012.33 319.804 2006.92 319.486 2001.84 319.486C1991.45 319.486 1980.95 321.5 1970.35 325.528C1959.75 329.556 1949.9 336.022 1940.78 344.926C1931.66 353.618 1924.14 364.96 1918.2 378.952V613H1859.05Z" fill="#030303"/>
</svg>
