<svg width="484" height="180" viewBox="0 0 484 180" fill="none" xmlns="http://www.w3.org/2000/svg">
<path d="M62.2283 139.126C64.5682 136.288 68.7833 135.87 71.6431 138.191C74.5027 140.513 74.9244 144.695 72.5849 147.533C68.6584 152.294 65.749 155.836 62.2118 158.963C58.5949 162.16 54.5206 164.764 48.354 168.163C45.1239 169.944 41.05 168.789 39.2554 165.584C37.4609 162.379 38.6249 158.337 41.855 156.556C47.7309 153.317 50.794 151.274 53.3101 149.05C55.9056 146.755 58.1264 144.1 62.2283 139.126Z" fill="white"/>
<path d="M63.637 37.5544C82.857 37.5546 98.1835 53.3627 98.1835 72.0785V157.492C98.1835 161.158 95.1878 164.13 91.4929 164.13C87.7977 164.13 84.8022 161.158 84.8022 157.492V72.0785C84.8022 60.4938 75.2651 50.8318 63.637 50.8315C49.0143 50.8316 41.2674 61.399 41.0901 68.2241V91.9908C41.0901 97.2118 39.3946 104.749 34.3367 111.417C29.1076 118.311 20.5883 123.861 7.87039 125.149C4.19447 125.521 0.910383 122.867 0.535082 119.219C0.159988 115.572 2.83549 112.314 6.51135 111.941C15.6488 111.016 20.7346 107.272 23.6457 103.434C26.7278 99.37 27.7088 94.736 27.7088 91.9908V68.0556L27.7106 67.9856C28.0247 53.2913 42.3764 37.5544 63.637 37.5544Z" fill="white"/>
<path d="M62.0541 64.9939C65.749 64.9941 68.7447 67.9662 68.7447 71.6325V89.7779C68.7447 96.5272 66.7223 109.101 59.5904 121.307C52.331 133.731 39.7539 145.769 18.9997 150.672C15.4051 151.522 11.7973 149.319 10.9413 145.752C10.0854 142.186 12.3055 138.606 15.9 137.756C32.6128 133.808 42.3384 124.362 48.0142 114.648C53.8172 104.716 55.3634 94.4967 55.3634 89.7779V71.6325C55.3634 67.9661 58.3589 64.9939 62.0541 64.9939Z" fill="white"/>
<path d="M63.8382 11C97.7631 11.0002 124.5 39.994 124.5 73.8453V131.822C124.5 135.489 121.504 138.461 117.809 138.461C114.114 138.461 111.119 135.489 111.119 131.822V73.8453C111.119 46.6219 89.6819 24.2774 63.8382 24.2772C32.6257 24.2774 14.2827 47.9885 13.8815 65.9663V91.1057C13.8815 94.7719 10.8858 97.744 7.19087 97.7443C3.49573 97.7443 0.500235 94.7721 0.500235 91.1057V65.8116L0.501978 65.7433C1.02395 40.355 25.4959 11.0002 63.8382 11Z" fill="white"/>
<path d="M198.9 145.9C193.7 145.9 189.2 144.925 185.4 142.975C181.65 140.975 178.75 138.275 176.7 134.875C174.7 131.475 173.7 127.625 173.7 123.325C173.7 118.875 174.575 115.125 176.325 112.075C178.075 108.975 180.6 106.45 183.9 104.5C187.2 102.5 191.2 101 195.9 100C199 99.3 202.275 98.75 205.725 98.35C209.225 97.95 212.575 97.625 215.775 97.375C218.975 97.125 221.7 96.95 223.95 96.85V92.275C223.95 85.725 222.575 81.025 219.825 78.175C217.075 75.275 212.8 73.825 207 73.825C203.4 73.825 200.225 74.3 197.475 75.25C194.775 76.2 192.675 77.975 191.175 80.575C189.675 83.125 188.95 86.875 189 91.825H175.95C175.35 85.075 176.3 79.475 178.8 75.025C181.3 70.525 185.05 67.175 190.05 64.975C195.05 62.725 200.975 61.6 207.825 61.6C211.725 61.6 215.45 62.075 219 63.025C222.55 63.925 225.7 65.475 228.45 67.675C231.2 69.825 233.375 72.775 234.975 76.525C236.575 80.275 237.375 84.975 237.375 90.625V145H223.8L223.95 127.225C222.7 132.875 219.875 137.4 215.475 140.8C211.125 144.2 205.6 145.9 198.9 145.9ZM202.125 134.875C205.775 134.875 209.125 134.2 212.175 132.85C215.275 131.5 217.875 129.775 219.975 127.675C222.075 125.575 223.4 123.425 223.95 121.225V105.325C221.05 105.525 217.825 105.875 214.275 106.375C210.725 106.825 207.6 107.375 204.9 108.025C199.5 109.275 195.475 110.95 192.825 113.05C190.225 115.15 188.925 118.175 188.925 122.125C188.925 124.475 189.425 126.625 190.425 128.575C191.475 130.475 192.975 132 194.925 133.15C196.875 134.25 199.275 134.825 202.125 134.875ZM261.274 145V28.375H275.224V145H261.274ZM323.285 146.125C316.935 146.125 312.085 144.5 308.735 141.25C305.435 137.95 303.785 133.275 303.785 127.225V82.825C303.785 81.225 304.11 79.75 304.76 78.4C305.41 77 306.36 76.1 307.61 75.7L303.785 66.4V63.85L307.16 39.4H317.585V124.9C317.585 128.1 318.335 130.275 319.835 131.425C321.335 132.525 323.91 133.075 327.56 133.075C330.21 133.075 332.46 133.075 334.31 133.075C336.16 133.025 338.085 132.925 340.085 132.775V145.075C337.335 145.575 334.485 145.875 331.535 145.975C328.635 146.075 325.885 146.125 323.285 146.125ZM291.86 75.7V63.175H339.41V75.7H291.86ZM386.878 146.125C379.428 146.125 372.878 144.5 367.228 141.25C361.628 138 357.278 133.225 354.178 126.925C351.078 120.575 349.528 112.825 349.528 103.675C349.528 94.875 351.128 87.325 354.328 81.025C357.528 74.725 361.928 69.9 367.528 66.55C373.128 63.2 379.503 61.525 386.653 61.525C393.753 61.525 399.828 63.05 404.878 66.1C409.978 69.15 413.903 73.525 416.653 79.225C419.403 84.875 420.753 91.65 420.703 99.55C420.703 101.15 420.653 102.475 420.553 103.525C420.453 104.575 420.378 105.675 420.328 106.825H363.478C363.828 115.825 366.078 122.65 370.228 127.3C374.428 131.9 379.778 134.2 386.278 134.2C391.778 134.2 396.028 133.05 399.028 130.75C402.078 128.4 404.003 125.4 404.803 121.75H418.453C418.103 126.95 416.503 131.375 413.653 135.025C410.853 138.675 407.153 141.45 402.553 143.35C397.953 145.2 392.728 146.125 386.878 146.125ZM370.903 96.325H406.678C406.578 89.325 404.853 83.825 401.503 79.825C398.153 75.825 393.028 73.825 386.128 73.825C378.878 73.825 373.378 76.3 369.628 81.25C365.878 86.15 363.828 92.925 363.478 101.575C363.878 99.525 364.678 98.15 365.878 97.45C367.128 96.7 368.803 96.325 370.903 96.325ZM438.956 145V63.175H450.806L452.306 94.6L450.656 90.325C451.006 87.225 451.681 84 452.681 80.65C453.731 77.3 455.206 74.175 457.106 71.275C459.056 68.325 461.531 65.95 464.531 64.15C467.581 62.35 471.306 61.45 475.706 61.45C476.556 61.45 477.356 61.5 478.106 61.6C478.906 61.7 479.681 61.825 480.431 61.975V76.75C479.181 76.35 477.856 76.1 476.456 76C475.106 75.85 473.831 75.775 472.631 75.775C470.181 75.775 467.706 76.25 465.206 77.2C462.706 78.15 460.381 79.675 458.231 81.775C456.081 83.825 454.306 86.5 452.906 89.8V145H438.956Z" fill="white"/>
</svg>
